<mxfile host="app.diagrams.net" modified="2024-01-18T00:07:09.379Z" agent="Mozilla/5.0 (Windows NT 10.0; Win64; x64) AppleWebKit/537.36 (KHTML, like Gecko) Chrome/120.0.0.0 Safari/537.36" etag="pDXEA3EJ3ajU6EDV9UC9" version="22.1.21" type="device">
  <diagram name="Page-1" id="VwZCegSTvDKiSecJ2Ps-">
    <mxGraphModel dx="2048" dy="618" grid="1" gridSize="10" guides="1" tooltips="1" connect="1" arrows="1" fold="1" page="1" pageScale="1" pageWidth="827" pageHeight="1169" math="0" shadow="0">
      <root>
        <mxCell id="0" />
        <mxCell id="1" parent="0" />
        <mxCell id="h1zkkJwXVKAa2Il2JU1P-9" value="" style="shape=table;html=1;whiteSpace=wrap;startSize=0;container=1;collapsible=0;childLayout=tableLayout;" parent="1" vertex="1">
          <mxGeometry x="-70" y="900" width="320" height="110" as="geometry" />
        </mxCell>
        <mxCell id="h1zkkJwXVKAa2Il2JU1P-10" value="" style="shape=partialRectangle;html=1;whiteSpace=wrap;collapsible=0;dropTarget=0;pointerEvents=0;fillColor=none;top=0;left=0;bottom=0;right=0;points=[[0,0.5],[1,0.5]];portConstraint=eastwest;" parent="h1zkkJwXVKAa2Il2JU1P-9" vertex="1">
          <mxGeometry width="320" height="28" as="geometry" />
        </mxCell>
        <mxCell id="h1zkkJwXVKAa2Il2JU1P-11" value="Projet" style="shape=partialRectangle;html=1;whiteSpace=wrap;connectable=0;overflow=hidden;fillColor=none;top=0;left=0;bottom=0;right=0;" parent="h1zkkJwXVKAa2Il2JU1P-10" vertex="1">
          <mxGeometry width="100" height="28" as="geometry">
            <mxRectangle width="100" height="28" as="alternateBounds" />
          </mxGeometry>
        </mxCell>
        <mxCell id="h1zkkJwXVKAa2Il2JU1P-12" value="Projet_DBPY" style="shape=partialRectangle;html=1;whiteSpace=wrap;connectable=0;overflow=hidden;fillColor=none;top=0;left=0;bottom=0;right=0;" parent="h1zkkJwXVKAa2Il2JU1P-10" vertex="1">
          <mxGeometry x="100" width="220" height="28" as="geometry">
            <mxRectangle width="220" height="28" as="alternateBounds" />
          </mxGeometry>
        </mxCell>
        <mxCell id="h1zkkJwXVKAa2Il2JU1P-13" value="" style="shape=partialRectangle;html=1;whiteSpace=wrap;collapsible=0;dropTarget=0;pointerEvents=0;fillColor=none;top=0;left=0;bottom=0;right=0;points=[[0,0.5],[1,0.5]];portConstraint=eastwest;" parent="h1zkkJwXVKAa2Il2JU1P-9" vertex="1">
          <mxGeometry y="28" width="320" height="27" as="geometry" />
        </mxCell>
        <mxCell id="h1zkkJwXVKAa2Il2JU1P-14" value="Titre" style="shape=partialRectangle;html=1;whiteSpace=wrap;connectable=0;overflow=hidden;fillColor=none;top=0;left=0;bottom=0;right=0;" parent="h1zkkJwXVKAa2Il2JU1P-13" vertex="1">
          <mxGeometry width="100" height="27" as="geometry">
            <mxRectangle width="100" height="27" as="alternateBounds" />
          </mxGeometry>
        </mxCell>
        <mxCell id="h1zkkJwXVKAa2Il2JU1P-15" value="MCD du Projet" style="shape=partialRectangle;html=1;whiteSpace=wrap;connectable=0;overflow=hidden;fillColor=none;top=0;left=0;bottom=0;right=0;" parent="h1zkkJwXVKAa2Il2JU1P-13" vertex="1">
          <mxGeometry x="100" width="220" height="27" as="geometry">
            <mxRectangle width="220" height="27" as="alternateBounds" />
          </mxGeometry>
        </mxCell>
        <mxCell id="h1zkkJwXVKAa2Il2JU1P-16" value="" style="shape=partialRectangle;html=1;whiteSpace=wrap;collapsible=0;dropTarget=0;pointerEvents=0;fillColor=none;top=0;left=0;bottom=0;right=0;points=[[0,0.5],[1,0.5]];portConstraint=eastwest;" parent="h1zkkJwXVKAa2Il2JU1P-9" vertex="1">
          <mxGeometry y="55" width="320" height="28" as="geometry" />
        </mxCell>
        <mxCell id="h1zkkJwXVKAa2Il2JU1P-17" value="Auteur" style="shape=partialRectangle;html=1;whiteSpace=wrap;connectable=0;overflow=hidden;fillColor=none;top=0;left=0;bottom=0;right=0;" parent="h1zkkJwXVKAa2Il2JU1P-16" vertex="1">
          <mxGeometry width="100" height="28" as="geometry">
            <mxRectangle width="100" height="28" as="alternateBounds" />
          </mxGeometry>
        </mxCell>
        <mxCell id="h1zkkJwXVKAa2Il2JU1P-18" value="Judah Periyasamy" style="shape=partialRectangle;html=1;whiteSpace=wrap;connectable=0;overflow=hidden;fillColor=none;top=0;left=0;bottom=0;right=0;" parent="h1zkkJwXVKAa2Il2JU1P-16" vertex="1">
          <mxGeometry x="100" width="220" height="28" as="geometry">
            <mxRectangle width="220" height="28" as="alternateBounds" />
          </mxGeometry>
        </mxCell>
        <mxCell id="h1zkkJwXVKAa2Il2JU1P-19" value="" style="shape=partialRectangle;html=1;whiteSpace=wrap;collapsible=0;dropTarget=0;pointerEvents=0;fillColor=none;top=0;left=0;bottom=0;right=0;points=[[0,0.5],[1,0.5]];portConstraint=eastwest;" parent="h1zkkJwXVKAa2Il2JU1P-9" vertex="1">
          <mxGeometry y="83" width="320" height="27" as="geometry" />
        </mxCell>
        <mxCell id="h1zkkJwXVKAa2Il2JU1P-20" value="Version" style="shape=partialRectangle;html=1;whiteSpace=wrap;connectable=0;overflow=hidden;fillColor=none;top=0;left=0;bottom=0;right=0;" parent="h1zkkJwXVKAa2Il2JU1P-19" vertex="1">
          <mxGeometry width="100" height="27" as="geometry">
            <mxRectangle width="100" height="27" as="alternateBounds" />
          </mxGeometry>
        </mxCell>
        <mxCell id="h1zkkJwXVKAa2Il2JU1P-21" value="2.0" style="shape=partialRectangle;html=1;whiteSpace=wrap;connectable=0;overflow=hidden;fillColor=none;top=0;left=0;bottom=0;right=0;" parent="h1zkkJwXVKAa2Il2JU1P-19" vertex="1">
          <mxGeometry x="100" width="220" height="27" as="geometry">
            <mxRectangle width="220" height="27" as="alternateBounds" />
          </mxGeometry>
        </mxCell>
        <mxCell id="h1zkkJwXVKAa2Il2JU1P-67" value="texte" style="text;html=1;strokeColor=none;fillColor=none;align=left;verticalAlign=top;whiteSpace=wrap;rounded=0;" parent="1" vertex="1">
          <mxGeometry x="2100" y="320" width="100" height="50" as="geometry" />
        </mxCell>
        <mxCell id="5zP0nn-TNitx6du8UJp8-22" value="&lt;div style=&quot;box-sizing: border-box ; width: 100% ; padding: 2px&quot;&gt;&lt;br&gt;&lt;/div&gt;" style="verticalAlign=top;align=center;overflow=fill;html=1;rounded=0;shadow=0;comic=0;labelBackgroundColor=none;strokeColor=#000000;strokeWidth=1;fillColor=#ffffff;fontFamily=Verdana;fontSize=12;fontColor=#000000;" parent="1" vertex="1">
          <mxGeometry x="160" y="480" width="200" height="115" as="geometry" />
        </mxCell>
        <mxCell id="5zP0nn-TNitx6du8UJp8-23" value="resultats" style="rounded=0;whiteSpace=wrap;html=1;" parent="1" vertex="1">
          <mxGeometry x="160" y="480" width="200" height="20" as="geometry" />
        </mxCell>
        <mxCell id="5zP0nn-TNitx6du8UJp8-24" value="&lt;br&gt;&lt;u&gt;pseudo&lt;/u&gt;&lt;br&gt;date_debut&lt;br&gt;durée&lt;br&gt;nb_essais&lt;br&gt;nb_réussi" style="text;html=1;strokeColor=none;fillColor=none;align=left;verticalAlign=top;whiteSpace=wrap;rounded=0;" parent="1" vertex="1">
          <mxGeometry x="170" y="501" width="99" height="135" as="geometry" />
        </mxCell>
        <mxCell id="5zP0nn-TNitx6du8UJp8-25" value="&lt;br&gt;texte&lt;br&gt;dateetheure&lt;br&gt;temps&lt;br&gt;nombres&lt;br&gt;nombres" style="text;html=1;strokeColor=none;fillColor=none;align=left;verticalAlign=top;whiteSpace=wrap;rounded=0;" parent="1" vertex="1">
          <mxGeometry x="284" y="500" width="99" height="135" as="geometry" />
        </mxCell>
        <mxCell id="5zP0nn-TNitx6du8UJp8-26" value="&lt;div style=&quot;box-sizing: border-box ; width: 100% ; padding: 2px&quot;&gt;&lt;br&gt;&lt;/div&gt;" style="verticalAlign=top;align=center;overflow=fill;html=1;rounded=0;shadow=0;comic=0;labelBackgroundColor=none;strokeColor=#000000;strokeWidth=1;fillColor=#ffffff;fontFamily=Verdana;fontSize=12;fontColor=#000000;" parent="1" vertex="1">
          <mxGeometry x="640" y="560" width="200" height="55" as="geometry" />
        </mxCell>
        <mxCell id="5zP0nn-TNitx6du8UJp8-27" value="exercices" style="rounded=0;whiteSpace=wrap;html=1;" parent="1" vertex="1">
          <mxGeometry x="640" y="560" width="200" height="20" as="geometry" />
        </mxCell>
        <mxCell id="5zP0nn-TNitx6du8UJp8-29" value="&lt;u&gt;nom&lt;/u&gt;" style="text;html=1;strokeColor=none;fillColor=none;align=center;verticalAlign=middle;whiteSpace=wrap;rounded=0;" parent="1" vertex="1">
          <mxGeometry x="640" y="585" width="60" height="30" as="geometry" />
        </mxCell>
        <mxCell id="5zP0nn-TNitx6du8UJp8-30" value="texte" style="text;html=1;strokeColor=none;fillColor=none;align=center;verticalAlign=middle;whiteSpace=wrap;rounded=0;" parent="1" vertex="1">
          <mxGeometry x="780" y="585" width="60" height="30" as="geometry" />
        </mxCell>
        <mxCell id="5zP0nn-TNitx6du8UJp8-36" value="&lt;div style=&quot;box-sizing: border-box ; width: 100% ; padding: 2px&quot;&gt;&lt;br&gt;&lt;/div&gt;" style="verticalAlign=top;align=center;overflow=fill;html=1;rounded=0;shadow=0;comic=0;labelBackgroundColor=none;strokeColor=#000000;strokeWidth=1;fillColor=#ffffff;fontFamily=Verdana;fontSize=12;fontColor=#000000;" parent="1" vertex="1">
          <mxGeometry x="410" y="670" width="200" height="55" as="geometry" />
        </mxCell>
        <mxCell id="5zP0nn-TNitx6du8UJp8-37" value="avoir" style="rounded=0;whiteSpace=wrap;html=1;" parent="1" vertex="1">
          <mxGeometry x="410" y="670" width="200" height="20" as="geometry" />
        </mxCell>
        <mxCell id="5zP0nn-TNitx6du8UJp8-40" value="" style="endArrow=none;html=1;rounded=0;exitX=1;exitY=0;exitDx=0;exitDy=0;entryX=0.25;entryY=1;entryDx=0;entryDy=0;" parent="1" source="5zP0nn-TNitx6du8UJp8-37" target="5zP0nn-TNitx6du8UJp8-29" edge="1">
          <mxGeometry width="50" height="50" relative="1" as="geometry">
            <mxPoint x="540" y="690" as="sourcePoint" />
            <mxPoint x="590" y="640" as="targetPoint" />
          </mxGeometry>
        </mxCell>
        <mxCell id="5zP0nn-TNitx6du8UJp8-41" value="" style="endArrow=none;html=1;rounded=0;exitX=0;exitY=0;exitDx=0;exitDy=0;entryX=0.768;entryY=0.741;entryDx=0;entryDy=0;entryPerimeter=0;" parent="1" source="5zP0nn-TNitx6du8UJp8-37" target="5zP0nn-TNitx6du8UJp8-25" edge="1">
          <mxGeometry width="50" height="50" relative="1" as="geometry">
            <mxPoint x="540" y="690" as="sourcePoint" />
            <mxPoint x="590" y="640" as="targetPoint" />
          </mxGeometry>
        </mxCell>
        <mxCell id="5zP0nn-TNitx6du8UJp8-42" value="1,1" style="text;html=1;strokeColor=none;fillColor=none;align=center;verticalAlign=middle;whiteSpace=wrap;rounded=0;" parent="1" vertex="1">
          <mxGeometry x="360" y="605" width="60" height="30" as="geometry" />
        </mxCell>
        <mxCell id="5zP0nn-TNitx6du8UJp8-43" value="1,n" style="text;html=1;strokeColor=none;fillColor=none;align=center;verticalAlign=middle;whiteSpace=wrap;rounded=0;" parent="1" vertex="1">
          <mxGeometry x="590" y="615" width="60" height="30" as="geometry" />
        </mxCell>
        <mxCell id="8QKFWGiokRYI4zSEAqMD-1" value="&lt;div style=&quot;box-sizing: border-box ; width: 100% ; padding: 2px&quot;&gt;&lt;br&gt;&lt;/div&gt;" style="verticalAlign=top;align=center;overflow=fill;html=1;rounded=0;shadow=0;comic=0;labelBackgroundColor=none;strokeColor=#000000;strokeWidth=1;fillColor=#ffffff;fontFamily=Verdana;fontSize=12;fontColor=#000000;" parent="1" vertex="1">
          <mxGeometry x="627" y="270" width="200" height="100" as="geometry" />
        </mxCell>
        <mxCell id="8QKFWGiokRYI4zSEAqMD-2" value="joueurs" style="rounded=0;whiteSpace=wrap;html=1;" parent="1" vertex="1">
          <mxGeometry x="627" y="270" width="200" height="20" as="geometry" />
        </mxCell>
        <mxCell id="8QKFWGiokRYI4zSEAqMD-3" value="&lt;u&gt;pseudo&lt;/u&gt;&lt;br&gt;mot_de_passe&lt;br&gt;niveau&lt;br&gt;sel" style="text;html=1;strokeColor=none;fillColor=none;align=center;verticalAlign=middle;whiteSpace=wrap;rounded=0;" parent="1" vertex="1">
          <mxGeometry x="650" y="305" width="60" height="30" as="geometry" />
        </mxCell>
        <mxCell id="8QKFWGiokRYI4zSEAqMD-4" value="texte&lt;br&gt;texte&lt;br&gt;nombre&lt;br&gt;texte" style="text;html=1;strokeColor=none;fillColor=none;align=center;verticalAlign=middle;whiteSpace=wrap;rounded=0;" parent="1" vertex="1">
          <mxGeometry x="760" y="305" width="60" height="30" as="geometry" />
        </mxCell>
        <mxCell id="8QKFWGiokRYI4zSEAqMD-5" value="&lt;div style=&quot;box-sizing: border-box ; width: 100% ; padding: 2px&quot;&gt;&lt;br&gt;&lt;/div&gt;" style="verticalAlign=top;align=center;overflow=fill;html=1;rounded=0;shadow=0;comic=0;labelBackgroundColor=none;strokeColor=#000000;strokeWidth=1;fillColor=#ffffff;fontFamily=Verdana;fontSize=12;fontColor=#000000;" parent="1" vertex="1">
          <mxGeometry x="397" y="380" width="200" height="55" as="geometry" />
        </mxCell>
        <mxCell id="8QKFWGiokRYI4zSEAqMD-6" value="avoir" style="rounded=0;whiteSpace=wrap;html=1;" parent="1" vertex="1">
          <mxGeometry x="397" y="380" width="200" height="20" as="geometry" />
        </mxCell>
        <mxCell id="8QKFWGiokRYI4zSEAqMD-7" value="" style="endArrow=none;html=1;rounded=0;exitX=1;exitY=0;exitDx=0;exitDy=0;" parent="1" source="8QKFWGiokRYI4zSEAqMD-6" edge="1">
          <mxGeometry width="50" height="50" relative="1" as="geometry">
            <mxPoint x="527" y="400" as="sourcePoint" />
            <mxPoint x="630" y="360" as="targetPoint" />
          </mxGeometry>
        </mxCell>
        <mxCell id="8QKFWGiokRYI4zSEAqMD-8" value="" style="endArrow=none;html=1;rounded=0;exitX=0;exitY=0;exitDx=0;exitDy=0;entryX=0.863;entryY=0.033;entryDx=0;entryDy=0;entryPerimeter=0;" parent="1" source="8QKFWGiokRYI4zSEAqMD-9" target="5zP0nn-TNitx6du8UJp8-23" edge="1">
          <mxGeometry width="50" height="50" relative="1" as="geometry">
            <mxPoint x="527" y="400" as="sourcePoint" />
            <mxPoint x="350" y="310" as="targetPoint" />
          </mxGeometry>
        </mxCell>
        <mxCell id="8QKFWGiokRYI4zSEAqMD-10" value="1,n" style="text;html=1;strokeColor=none;fillColor=none;align=center;verticalAlign=middle;whiteSpace=wrap;rounded=0;" parent="1" vertex="1">
          <mxGeometry x="577" y="325" width="60" height="30" as="geometry" />
        </mxCell>
        <mxCell id="8QKFWGiokRYI4zSEAqMD-13" value="" style="endArrow=none;html=1;rounded=0;exitX=0;exitY=0;exitDx=0;exitDy=0;entryX=0.863;entryY=0.033;entryDx=0;entryDy=0;entryPerimeter=0;" parent="1" source="8QKFWGiokRYI4zSEAqMD-6" target="8QKFWGiokRYI4zSEAqMD-9" edge="1">
          <mxGeometry width="50" height="50" relative="1" as="geometry">
            <mxPoint x="397" y="380" as="sourcePoint" />
            <mxPoint x="333" y="481" as="targetPoint" />
          </mxGeometry>
        </mxCell>
        <mxCell id="8QKFWGiokRYI4zSEAqMD-9" value="1,1" style="text;html=1;strokeColor=none;fillColor=none;align=center;verticalAlign=middle;whiteSpace=wrap;rounded=0;" parent="1" vertex="1">
          <mxGeometry x="350" y="420" width="17" height="15" as="geometry" />
        </mxCell>
      </root>
    </mxGraphModel>
  </diagram>
</mxfile>
